<?xml version="1.0" encoding="UTF-8"?>
<!-- Created with Inkscape (http://www.inkscape.org/) -->
<svg width="87.999mm" height="34.473mm" version="1.1" viewBox="0 0 87.999 34.473" xmlns="http://www.w3.org/2000/svg">
 <g transform="translate(-111.65 -150.28)" stroke-width=".26458">
  <path d="m134 150.33c21.781 0.17594 44.268-0.35243 65.608 0.26432-0.17383 7.1453 0.34951 14.988-0.26459 21.693h-65.608v-21.164c-0.0228-0.37544-0.0437-0.7493 0.26458-0.79348z"/>
  <path d="m130.83 155.88v17.725h27.778c0.88476 0.24606-0.95647 1.7685-1.3229 2.6456-0.39185 0.93874-0.54028 1.8407-0.52917 2.9102h-28.572c0.20532-9.1228-14.083-8.9043-14.021 0-2.8472 0.62283-2.3503-2.4966-2.381-4.4974-0.0318-2.0841-0.26379-5.0874 0-6.8784 0.58261-3.9563 3.5248-8.3328 4.4974-11.111 4.8091-0.3056 9.5152-0.71411 14.55-0.79375zm-13.756 3.175c-1.1634 2.5403-2.4204 4.9871-2.9102 8.2008 3.0768 0.23495 7.1676-0.7538 10.847-0.79349v-7.9362c-2.5482 0.27358-5.176 0.46751-7.9364 0.5289z"/>
  <path d="m119.98 173.87c4.0809-0.83635 7.4097 1.5978 6.8784 6.0846-0.40773 3.443-3.6198 4.9281-6.0846 4.762-6.0172-0.40587-7.0622-9.5618-0.79375-10.847z"/>
  <path d="m162.57 173.87c9.57-1.8182 8.2518 13.169-0.52917 10.582-4.8662-1.4338-5.6724-9.4038 0.52917-10.582z"/>
  <path d="m168.13 173.87c2.999-0.61621 7.1422-0.0889 10.582-0.26458 0.86492 0.44926-0.65537 1.248-1.0583 2.1164-0.48657 1.0499-0.81624 2.181-0.79375 3.4393h-6.3492c0.1987-2.7559-0.96017-4.1545-2.3807-5.2911z"/>
  <path d="m182.68 173.87c9.5702-1.8182 8.2518 13.169-0.52917 10.582-4.8662-1.4338-5.6724-9.4038 0.52917-10.582z"/>
  <path d="m188.23 173.87c3.2636-0.61648 7.6713-0.0889 11.376-0.26458v3.9682c-2.4487 1.0784-5.143 1.9124-8.9948 1.5875 0.19844-2.7559-0.96017-4.1545-2.381-5.2911z"/>
  <path d="m134 150.33c21.781 0.17594 44.268-0.35243 65.608 0.26432-0.17383 7.1453 0.34951 14.988-0.26459 21.693h-65.608v-21.164c-0.0228-0.37544-0.0437-0.7493 0.26458-0.79348z"/>
  <path d="m130.83 155.88v17.725h27.778c0.88476 0.24606-0.95647 1.7685-1.3229 2.6456-0.39185 0.93874-0.54028 1.8407-0.52917 2.9102h-28.572c0.20532-9.1228-14.083-8.9043-14.021 0-2.8472 0.62283-2.3503-2.4966-2.381-4.4974-0.0318-2.0841-0.26379-5.0874 0-6.8784 0.58261-3.9563 3.5248-8.3328 4.4974-11.111 4.8091-0.3056 9.5152-0.71411 14.55-0.79375zm-13.756 3.175c-1.1634 2.5403-2.4204 4.9871-2.9102 8.2008 3.0768 0.23495 7.1676-0.7538 10.847-0.79349v-7.9362c-2.5482 0.27358-5.176 0.46751-7.9364 0.5289z"/>
  <path d="m119.98 173.87c4.0809-0.83635 7.4097 1.5978 6.8784 6.0846-0.40773 3.443-3.6198 4.9281-6.0846 4.762-6.0172-0.40587-7.0622-9.5618-0.79375-10.847z"/>
  <path d="m162.57 173.87c9.57-1.8182 8.2518 13.169-0.52917 10.582-4.8662-1.4338-5.6724-9.4038 0.52917-10.582z"/>
  <path d="m168.13 173.87c2.999-0.61621 7.1422-0.0889 10.582-0.26458 0.86492 0.44926-0.65537 1.248-1.0583 2.1164-0.48657 1.0499-0.81624 2.181-0.79375 3.4393h-6.3492c0.1987-2.7559-0.96017-4.1545-2.3807-5.2911z"/>
  <path d="m182.68 173.87c9.5702-1.8182 8.2518 13.169-0.52917 10.582-4.8662-1.4338-5.6724-9.4038 0.52917-10.582z"/>
  <path d="m188.23 173.87c3.2636-0.61648 7.6713-0.0889 11.376-0.26458v3.9682c-2.4487 1.0784-5.143 1.9124-8.9948 1.5875 0.19844-2.7559-0.96017-4.1545-2.381-5.2911z"/>
 </g>
</svg>
