<?xml version="1.0" encoding="UTF-8"?>
<!-- Created with Inkscape (http://www.inkscape.org/) -->
<svg width="63.009mm" height="34.965mm" version="1.1" viewBox="0 0 63.009 34.965" xmlns="http://www.w3.org/2000/svg">
 <g transform="translate(-101.86 -185.74)" stroke-width=".26458">
  <path d="m159.68 186.05c1.4452 1.2922 2.1302 4.1444 2.9102 6.8784 0.71597 2.5098 1.827 5.3843 2.1164 7.6719 0.32173 2.5424 0.0937 6.319 0 8.9948-0.0963 2.7596-0.42678 5.4732-3.7036 5.0263-1.0208-0.47308-0.83106-1.7862-1.0583-2.381-2.6622-6.9686-13.953-7.0792-14.55 2.381h-24.074c0.0376-7.7414-9.9332-9.8547-13.757-4.4974-0.93319 1.3076-0.80698 2.7871-1.5872 4.4974-1.1274-0.10689-2.7252 0.25611-3.4393-0.26459-2.2931-9.6483 1.8087-17.389 4.2328-24.074-0.30904-1.3663-1.8944-1.4565-1.3227-3.7036-0.0116-0.4527 0.19659-0.68527 0.52917-0.79375 17.815 0.17409 36.329-0.34952 53.704 0.26458zm-50.264 3.4391c-1.7915 3.2353-3.2835 6.7696-3.9682 11.111 3.4555 0.43842 8.7138 0.43842 12.169 0 0.45191-3.12 0.41884-7.9862 0-11.111h-8.201zm11.64 0c-0.26538 0-0.31486 0.21457-0.52917 0.26458-0.43788 3.0186-0.43788 7.828 0 10.847 3.0567 0.30163 8.4802 0.73581 11.111-0.26458-0.67919-3.9063-2.1693-7.0017-2.9102-10.847h-7.6719zm11.375 0.26458c0.63421 4.0399 1.9344 7.4136 2.9102 11.111 3.4052-0.29872 8.038 0.63076 10.582-0.52917-0.71967-3.8658-1.9608-7.2102-2.9102-10.847-3.4486 0.16695-7.5708-0.33973-10.582 0.26458zm13.492 0c0.41566 4.2582 1.9629 7.3845 2.9102 11.111 3.3607-0.16643 7.3938 0.33919 10.317-0.26459 0.0947-3.6634-1.8854-7.4319-2.6456-11.111-3.4486 0.16695-7.5711-0.33973-10.582 0.26458z"/>
  <path d="m113.39 208.8c2.9514-0.2376 5.3528 1.3674 6.0846 3.439 2.9813 8.4394-9.0424 11.39-11.376 4.762-1.3192-3.7478 0.71967-7.833 5.2911-8.201z"/>
  <path d="m152.27 208.8c3.8121-0.41275 7.634 2.34 6.6138 7.4073-0.69506 3.452-4.237 4.5196-6.0846 4.4974-7.7938-0.0926-7.9939-11.097-0.52917-11.905z"/>
 </g>
</svg>
